<mxfile host="app.diagrams.net" modified="2021-07-01T13:46:02.399Z" agent="5.0 (Windows NT 10.0; Win64; x64) AppleWebKit/537.36 (KHTML, like Gecko) Chrome/91.0.4472.124 Safari/537.36" etag="ZRhyDSDVRJVmT-4QGWeE" version="14.8.3" type="github">
  <diagram id="imIIgNcs6iiUv3obs8cD" name="Page-1">
    <mxGraphModel dx="1422" dy="775" grid="1" gridSize="10" guides="1" tooltips="1" connect="1" arrows="1" fold="1" page="1" pageScale="1" pageWidth="827" pageHeight="1169" math="0" shadow="0">
      <root>
        <mxCell id="0" />
        <mxCell id="1" parent="0" />
        <mxCell id="3rgK-tgGbQ6Lh1-LBTqX-1" value="" style="outlineConnect=0;fontColor=#232F3E;gradientColor=none;fillColor=#3334B9;strokeColor=none;dashed=0;verticalLabelPosition=bottom;verticalAlign=top;align=center;html=1;fontSize=12;fontStyle=0;aspect=fixed;pointerEvents=1;shape=mxgraph.aws4.rds_sql_server_instance;" vertex="1" parent="1">
          <mxGeometry x="422" y="740" width="78" height="78" as="geometry" />
        </mxCell>
        <mxCell id="3rgK-tgGbQ6Lh1-LBTqX-2" value="" style="aspect=fixed;pointerEvents=1;shadow=0;dashed=0;html=1;strokeColor=none;labelPosition=center;verticalLabelPosition=bottom;verticalAlign=top;align=center;fillColor=#00188D;shape=mxgraph.mscae.enterprise.web_server" vertex="1" parent="1">
          <mxGeometry x="550" y="360" width="83.6" height="110" as="geometry" />
        </mxCell>
        <mxCell id="3rgK-tgGbQ6Lh1-LBTqX-3" value="" style="shape=image;html=1;verticalAlign=top;verticalLabelPosition=bottom;labelBackgroundColor=#ffffff;imageAspect=0;aspect=fixed;image=https://cdn4.iconfinder.com/data/icons/logos-3/456/nodejs-new-pantone-black-128.png" vertex="1" parent="1">
          <mxGeometry x="73.44999999999999" y="384" width="96" height="96" as="geometry" />
        </mxCell>
        <mxCell id="3rgK-tgGbQ6Lh1-LBTqX-6" value="" style="shape=image;verticalLabelPosition=bottom;labelBackgroundColor=#ffffff;verticalAlign=top;aspect=fixed;imageAspect=0;image=data:image/svg+xml,PHN2ZyB4bWxucz0iaHR0cDovL3d3dy53My5vcmcvMjAwMC9zdmciIHdpZHRoPSIyNTYiIGhlaWdodD0iMjk1Ljg5OTk5Mzg5NjQ4NDQiIHZpZXdCb3g9IjAgMCAyNTYgMjk1Ljg5OTk5Mzg5NjQ4NDQiIHByZXNlcnZlQXNwZWN0UmF0aW89InhNaWRZTWlkIj48cGF0aCBkPSJNMjE5LjAxMyA5NC4zNjJ2MTA2LjU5NGwtOTAuNTc2IDUzLjU4OC0uODE5Ljc0NXYzOS44MzlsLjgxOS43NzJMMjU2IDIyMi4yMTZWNzMuNjg0bC0xLjIwNS0uMjk1LTM1Ljk2MyAyMC4xMDYuMTgxLjg2NyIgZmlsbD0iIzJGNDA2QSIvPjxwYXRoIGQ9Ik0zNy41NyAyMDEuODI5bDkwLjg2NyA1Mi43MTVWMjk1LjlMMCAyMjEuOTI1VjczLjk3NWwxLjMxOC0uMTk5IDM1Ljg1OSAyMC44NDguMzkzIDEuMTk0djEwNi4wMTEiIGZpbGw9IiMyMzc5QkQiLz48cGF0aCBkPSJNMzcuNTcgOTUuODE4TDAgNzMuOTc1IDEyOC4xNDYgMCAyNTYgNzMuNjg0bC0zNi45ODcgMjAuNjc4LTkwLjg2Ny01MS44NDFMMzcuNTcgOTUuODE4IiBmaWxsPSIjMDNBRkVGIi8+PHBhdGggZD0iTTEyNi44NzggMTg5LjYzOGwtLjk4NC0xLjAwNHYtNDAuMDI2bC45ODQtLjUwOC4yMzktLjk4NyAzNC4zMTUtMjAuMDE3IDEuMDUuMjM1djQxLjI0MmwtMzUuNjA0IDIxLjA2NSIgZmlsbD0iIzJGNDA2QSIvPjxwYXRoIGQ9Ik05MC42OCAxNjkuODU4di00Mi44MjNsLjk5NS0uMDQ5IDM0LjkwNiAyMC4zMTQuMjk3Ljh2NDEuNTM4bC0zNi4xOTgtMTkuNzgiIGZpbGw9IiMyMzc5QkQiLz48cGF0aCBkPSJNMTI2LjI4NCAxMDUuOTY5TDkwLjY4IDEyNy4wMzVsMzYuMTk4IDIxLjA2NSAzNS42MDQtMjAuNzY5LTM2LjE5OC0yMS4zNjIiIGZpbGw9IiMwM0FGRUYiLz48cGF0aCBkPSJNODIuNTcgMjE1Ljc0OGwtLjk4My0xLjAwNHYtNDAuMDI3bC45ODMtLjUwNy4yNC0uOTg3IDM0LjMxNC0yMC4wMTcgMS4wNS4yMzV2NDEuMjQxTDgyLjU3IDIxNS43NDgiIGZpbGw9IiMyRjQwNkEiLz48cGF0aCBkPSJNNDYuMzczIDE5NS45Njh2LTQyLjgyNGwuOTk0LS4wNDkgMzQuOTA2IDIwLjMxNS4yOTcuOHY0MS41MzhsLTM2LjE5Ny0xOS43OCIgZmlsbD0iIzIzNzlCRCIvPjxwYXRoIGQ9Ik04MS45NzcgMTMyLjA3OWwtMzUuNjA0IDIxLjA2NUw4Mi41NyAxNzQuMjFsMzUuNjA0LTIwLjc2OS0zNi4xOTctMjEuMzYyIiBmaWxsPSIjMDNBRkVGIi8+PHBhdGggZD0iTTE3NC4zNSAyMTYuNzM3bC0uOTg0LTEuMDA0di00MC4wMjdsLjk4NC0uNTA3LjIzOS0uOTg3IDM0LjMxNS0yMC4wMTcgMS4wNS4yMzV2NDEuMjQxbC0zNS42MDQgMjEuMDY2IiBmaWxsPSIjMkY0MDZBIi8+PHBhdGggZD0iTTEzOC4xNTIgMTk2Ljk1N3YtNDIuODI0bC45OTUtLjA0OSAzNC45MDYgMjAuMzE1LjI5Ny44djQxLjUzOGwtMzYuMTk4LTE5Ljc4IiBmaWxsPSIjMjM3OUJEIi8+PHBhdGggZD0iTTE3My43NTYgMTMzLjA2OGwtMzUuNjA0IDIxLjA2NSAzNi4xOTggMjEuMDY2IDM1LjYwNC0yMC43NjktMzYuMTk4LTIxLjM2MiIgZmlsbD0iIzAzQUZFRiIvPjxwYXRoIGQ9Ik0xMzAuMDQyIDI0Mi44NDdsLS45ODMtMS4wMDR2LTQwLjAyN2wuOTgzLS41MDcuMjQtLjk4OCAzNC4zMTUtMjAuMDE2IDEuMDQ5LjIzNXY0MS4yNDFsLTM1LjYwNCAyMS4wNjYiIGZpbGw9IiMyRjQwNkEiLz48cGF0aCBkPSJNOTMuODQ1IDIyMy4wNjd2LTQyLjgyNGwuOTk0LS4wNDkgMzQuOTA3IDIwLjMxNC4yOTYuODAxdjQxLjUzOGwtMzYuMTk3LTE5Ljc4IiBmaWxsPSIjMjM3OUJEIi8+PHBhdGggZD0iTTEyOS40NDkgMTU5LjE3N2wtMzUuNjA0IDIxLjA2NiAzNi4xOTcgMjEuMDY2IDM1LjYwNC0yMC43NjktMzYuMTk3LTIxLjM2MyIgZmlsbD0iIzAzQUZFRiIvPjxwYXRoIGQ9Ik0xMjYuODc4IDEzMi44N2wtLjk4NC0xLjAwNVY5MS44MzlsLjk4NC0uNTA3LjIzOS0uOTg4IDM0LjMxNS0yMC4wMTYgMS4wNS4yMzV2NDEuMjQxbC0zNS42MDQgMjEuMDY2IiBmaWxsPSIjMkY0MDZBIi8+PHBhdGggZD0iTTkwLjY4IDExMy4wOVY3MC4yNjZsLjk5NS0uMDQ5IDM0LjkwNiAyMC4zMTQuMjk3LjgwMXY0MS41MzhMOTAuNjggMTEzLjA5IiBmaWxsPSIjMjM3OUJEIi8+PHBhdGggZD0iTTEyNi4yODQgNDkuMkw5MC42OCA3MC4yNjZsMzYuMTk4IDIxLjA2NiAzNS42MDQtMjAuNzY5TDEyNi4yODQgNDkuMiIgZmlsbD0iIzAzQUZFRiIvPjxwYXRoIGQ9Ik04Mi41NyAxNTguOTc5bC0uOTgzLTEuMDA0di00MC4wMjZsLjk4My0uNTA4LjI0LS45ODcgMzQuMzE0LTIwLjAxNyAxLjA1LjIzNXY0MS4yNDJMODIuNTcgMTU4Ljk3OSIgZmlsbD0iIzJGNDA2QSIvPjxwYXRoIGQ9Ik00Ni4zNzMgMTM5LjE5OVY5Ni4zNzZsLjk5NC0uMDQ5IDM0LjkwNiAyMC4zMTQuMjk3Ljh2NDEuNTM4bC0zNi4xOTctMTkuNzgiIGZpbGw9IiMyMzc5QkQiLz48cGF0aCBkPSJNODEuOTc3IDc1LjMxTDQ2LjM3MyA5Ni4zNzZsMzYuMTk3IDIxLjA2NSAzNS42MDQtMjAuNzY5TDgxLjk3NyA3NS4zMSIgZmlsbD0iIzAzQUZFRiIvPjxwYXRoIGQ9Ik0xNzQuMzUgMTU5Ljk2OGwtLjk4NC0xLjAwNHYtNDAuMDI2bC45ODQtLjUwOC4yMzktLjk4NyAzNC4zMTUtMjAuMDE3IDEuMDUuMjM1djQxLjI0MmwtMzUuNjA0IDIxLjA2NSIgZmlsbD0iIzJGNDA2QSIvPjxwYXRoIGQ9Ik0xMzguMTUyIDE0MC4xODhWOTcuMzY1bC45OTUtLjA0OSAzNC45MDYgMjAuMzE0LjI5Ny44djQxLjUzOGwtMzYuMTk4LTE5Ljc4IiBmaWxsPSIjMjM3OUJEIi8+PHBhdGggZD0iTTE3My43NTYgNzYuMjk5bC0zNS42MDQgMjEuMDY2IDM2LjE5OCAyMS4wNjUgMzUuNjA0LTIwLjc2OS0zNi4xOTgtMjEuMzYyIiBmaWxsPSIjMDNBRkVGIi8+PHBhdGggZD0iTTEzMC4wNDIgMTg2LjA3OGwtLjk4My0xLjAwNHYtNDAuMDI3bC45ODMtLjUwNy4yNC0uOTg3IDM0LjMxNS0yMC4wMTcgMS4wNDkuMjM1djQxLjI0MWwtMzUuNjA0IDIxLjA2NiIgZmlsbD0iIzJGNDA2QSIvPjxwYXRoIGQ9Ik05My44NDUgMTY2LjI5OHYtNDIuODI0bC45OTQtLjA0OSAzNC45MDcgMjAuMzE1LjI5Ni44djQxLjUzOGwtMzYuMTk3LTE5Ljc4IiBmaWxsPSIjMjM3OUJEIi8+PHBhdGggZD0iTTEyOS40NDkgMTAyLjQwOGwtMzUuNjA0IDIxLjA2NiAzNi4xOTcgMjEuMDY2IDM1LjYwNC0yMC43NjktMzYuMTk3LTIxLjM2MyIgZmlsbD0iIzAzQUZFRiIvPjwvc3ZnPg==;" vertex="1" parent="1">
          <mxGeometry x="520" y="480" width="127" height="146.84" as="geometry" />
        </mxCell>
        <mxCell id="3rgK-tgGbQ6Lh1-LBTqX-8" value="" style="verticalLabelPosition=bottom;html=1;verticalAlign=top;align=center;strokeColor=none;fillColor=#00BEF2;shape=mxgraph.azure.github_code;pointerEvents=1;" vertex="1" parent="1">
          <mxGeometry x="436" y="285" width="44" height="45" as="geometry" />
        </mxCell>
        <mxCell id="3rgK-tgGbQ6Lh1-LBTqX-9" value="" style="aspect=fixed;pointerEvents=1;shadow=0;dashed=0;html=1;strokeColor=none;labelPosition=center;verticalLabelPosition=bottom;verticalAlign=top;align=center;fillColor=#00188D;shape=mxgraph.azure.laptop" vertex="1" parent="1">
          <mxGeometry x="270" y="384" width="133.33" height="80" as="geometry" />
        </mxCell>
        <mxCell id="3rgK-tgGbQ6Lh1-LBTqX-11" value="" style="shape=image;verticalLabelPosition=bottom;labelBackgroundColor=#ffffff;verticalAlign=top;aspect=fixed;imageAspect=0;image=data:image/jpeg,/9j/4AAQSkZJRgABAQAAAQABAAD/7QBuUGhvdG9zaG9wIDMuMAA4QklNBAQAAAAAAFEcAVoAAxslRxwCAAACAAAcAnQAPcKpIGJsYWtldGhlZGVhZCAtIGh0dHA6Ly93d3cucmVkYnViYmxlLmNvbS9wZW9wbGUvYmxha2V0aGVkZWEA/9sAQwAFAwQEBAMFBAQEBQUFBgcMCAcHBwcPCwsJDBEPEhIRDxERExYcFxMUGhURERghGBodHR8fHxMXIiQiHiQcHh8e/9sAQwEFBQUHBgcOCAgOHhQRFB4eHh4eHh4eHh4eHh4eHh4eHh4eHh4eHh4eHh4eHh4eHh4eHh4eHh4eHh4eHh4eHh4e/8IAEQgCWAJYAwEiAAIRAQMRAf/EABwAAQACAgMBAAAAAAAAAAAAAAAEBwMGAQIFCP/EABUBAQEAAAAAAAAAAAAAAAAAAAAB/9oADAMBAAIQAxAAAAG4AAAAAAAAAAAAAAAAAAAAAAAAAAAAAAAAAAAAAAAAAAAAAAAAAAAAAAAAAAAAAAAAAAAAAAAAAAAAAAAAAAAAAAAAAAAAAAAAAAAAAAAAAAAAAAAAAAAAAAAAAAAAAAAAAADod8UfOYk7sefnzxCQhyjsAAAAAAAAAAAAAAAAAAAAAAAAAAAAAAAcHPXB1HaX3OOQAA6wfQECTzDJjBnAAAAAAAAAAAAAAAAAAAAAAAAAAAADHGM+CRKMGcAAAAAAI0b0hGyR8ZMdewAAAAAAAAAAAAAAAAAAAAAAAAcRzPF5mkSbyAAAADX9CLdeT6wAAA6dx5/adhHMLOZgAAAAAAAAAAAAAAAAAAAADGZMGGSRpmYAAAAGGtzfqq0mPHbqGWyKyH03I+bLVN+cc0AAAiyh5smRCJKJJOwAAAAAAAAAAAAAAAABwc9Y/BxkldwAAAAa4bHo9c61HqeWAAAAGw25QXJ9RKUtivTAAAB0hegIMjiITWHMAAAAAAAAAAAAAAOOkYzYpEkw5gAAAGAz+bX9axumi8AAAAAAABmwi0LM+Y/SPpFou81yAAACLH9Lgwd43QmOvYAAAAAAAAAAA4iJxFmgAAAA41qpCxaq81AAAAAAAAAAADZNbH0Bsfy7vZc7zvRoAAB07jzu87Ac8xpIAAAAAAAAA69sZjmxZQAAAR6xLBqjTcUc8AAAAAAAAAAAAAABIsyqx9PZfnG2K3YAAAECTGknIAAAAAAAAGPJjOJUWUAAddC1XRY9DzwAAAAAAAAAAAAAAAAAA2i2/nzsfUKvrBoACBJjSTkAAAAAAAADHkxnEqLKAAKH1Ta9UgAAAAAAAAAAAAAAAAAAACzLXqi16AAgSY0k5AAAAAAAAAx5MZxKiygAChtV2rVYAAAAAAAAAAAAAAAAAAAAsy16ptagAIEmNJOQAAAAAAAAMeTGcSosoAAobVdq1WAAAAAAAAAAAAAAAAAAAALNtaqbWoACBJjSTkAAAAAAAADHkxnEqLKAAKF1badWgAAAAAAAAAAAAAAAAAAACzrVqq1aAAgSY0k5AAAAAAAAAx5MZxKiygAChNX2jWI42Gw+xq/l+j7xVEi6qVJvkfQFOHhGUkSbqqggeN9DeAV/6vpeaeLrl4xil/Z8e/ygtp3bMVj5O22cVhN9PyzXfFvLWCtJHe+Sr5E2Ga94d7aaV36Xq20Vx1kZDSoH0JTht1qVXalAAQJMaScgAAAAAAAAY8mM4lRZQABQfoefYcYKc3vwDw3uDcoUPdyrLmoDezSbW96Ga1XfTufTtGXJ83HAObyozeiHaerbSaRWvp+cXPo9v0WeG9weJfVQWEeR7EDfz5wWDqBDuujhcGp5rJPnxuWrntbdVotC06stMCgIEmNJOQAAAAAAAAMeTGcSosoAAoO0Ku36McPWtQLUVWLU8jUvRNe9Xz72PdqfwbbKCyer5R9BfPP0382EcDcdOss9TYdJ3YobjnCfS1ebz87lnqrFqKr2AyQPZ8c3jZKNH0BW+o/QR857L6umFo7DQwvipubjNMtOrbSoACBJjSTkAAAAAAAADHkxnEqLKAAKC7dNai/qJ3axD5973jMPM0f1NdN48LYacHt+IL+oreJZaNfbRX5XnF84ynL4jVSeNd3z/dhTWDNhLZxVhbZUHF/xSm72jVQexuVH2kVd1+goBSX0L59em465oVyFIr8jFUXLFqY3O0qutGgAIEmNJOQAAAAAAAAMeTGcSosoAAoHWtk1uAMuPgAAAMmPIfQHz39CfPZzkxAAAADt3xAADt3xAADu6AC0rRq+0KAAgSY0k5AAAAAAAAAx5MZxKiygACgNb2TW4AAAAAd+gtGrgAAAAAAAAAAAAAtO0KvtCgAIEmNJOQAAAAAAAAMeTGcSosoAA+f9c2PXIAAAAAAAAAAAAAAAAAAAAtSz6ws+gAIEmNJOQAAAAAAAAMeTGcSosoAA+ftdsqto4AAAAAAAAAAAAAAAAAAAMhaNnaRu9AAQJMaScgAAAAAAAAY8mM4lRZQAA1zYxQGt/UWjRSz0vNAAAAAAAAAAAAAAAAD3raK5tn2FAAAQJMaScgAAAAAAAAdewjzfPlGYAAAGCtLSHzFh+kKnjR3PAAAAAAAAAAAAAZbHNCtPeJJ17FAAACKYZceQAAAAAAAAAAcR5IiTccY9BBmnIAAANZqP6C4Pl1ctVR54AAAAAAAABsJr+62Ns55PrFAAADqdsUUdcubkAAAAAAAAAAAAAxxpoxSomA9JhzAAACPIFU1v9PeTHzk3TSwAAAAAZjD6O/2YaTvnKgAAACNGM2LPlOvYAAAAAAAAAAAAAAAHHIjdZfUyd/OyE0AAADVdqHz14P1DX8U8nQQABzsdtlc2v6agAAADrBJcPtJMObkAAAAAAAAAAAAAAAAAAAMeQQpOTATHnTDKAAACLV9tD5gx/RWoxW1r7nmOOSgAABGJMLFJI8rsAAAAAAAAAAAAAAAAAAAAAAAOI0oRJ2KKeihTQAAAAAAAdDvhi8nXLm5AAAAAAAAAAAAAAAAAAAAAAAAAAAMcabwdJMLGeixZQAAABxGjmTpIyHXsAAAAAAAAAAAAAAAAAAAAAAAAAAAAADjkRUrqZe3nZSYxdzswRiVDySDFmAAAAAAAAAAAAAAAAAAAAAAAAAAAAAAAAAB07iP1lDBm5AAAAAAAAAAAAAAAAAAAAAAAAAAAAAAAAAAAAAAAAAAAAAAAAAAAAAAAAAAAAAAAAAAAAAAAAAAAAAAAAAAAAAAAAAAAAAAAAAAAAAAAAAAAAAAAAAAAAAAAAAAAAAAAAAAAAH//xAAwEAAABQIEBQQCAgIDAAAAAAABAgMEBQAGIDAzQBARMjVQEhMWIRUxFGAjgCQlNP/aAAgBAQABBQL/AHlMcAr3gr3RoFi0UwD/AEUTAFesxxIiFcg4ektHR+wUEogPP+giNCpzEqIiIAAYjFA1CkYlEV8+dUAoEznohClylEynASqJURQDebOcC1/kUpNIpc5REDD6jpiUwD5cxgCvUc9JogGyMjyoqggIDz8mI8qFQREiPOgDkGzMUDAZIxKIpz8idTlRUznohSlDKlJdmwBO6nH8qOkWr8mUokU9CCidEOBvGnUAtACilJpFJlvnrZknLXK4XoRERpJQ6R4m5zFpuui4SyjolGvUclFMA+JMYAr1HUFNECjlLKpopy1zgFOFlXCmFk8cs1Ym5UF6AQEMkQ5gdHlRVOQgPPwojyoygiJUeeWP1UtcbZtUg/dPlMmLmHjAYqbZv8sxCmoUzkoioD4M6vKipGPRSgUMqVmWbAJWaeP86JuNy1qPftXyeUdIpq/yJ0Q4G351ALQFUUpNMpMt++ask5a5HLmhHmOeiqoipE3PSCyS6eUoiA16zEEDAO7MYArmdSk0QLlrrJIJy1z0sqosps2D5yyUibjbOaD7DJEAGjIiAlV+wHbjQqCIkR+8oRAAlrkbt6fPnL1TbxUy8YDFTLN+GUchTAKZ06IoA7Y3NQ5SgUMqVm2bCpSYePx3QCIDE3I4b0xetnqeUomBqSNtB/TXKkJBqxTlridOt+gsqgpE3OA0iomsnkn+nGzP0tdLG4XRbpS1zmGlVFFVPAx8g6YqRNxNXWS41Q2Z+lrpYTCBQlrlQQp68cvFfCxU28YVFy7N+GJxqhsz9LXSw3e7cDJ+IKIlGz5F07DC41Q2Z+lrpYbt774mw9bC41Q2Z+lrpYbs774mw9bC41Q2Z+lrpYbs774mw9XC41Q2Z+lrpYbs774mw9XC41Q2Z+lrpYbr774mw9XC41Q2Z+lrpYbr774mw9TC41Q2Z+lrpYbr774mw9TC41Q2Z+lrpYbq774mw+vC41Q2Z+lrpYbq77wZQsi6ALVf8nVvyaACAgLZBVyq4jH7dLi0auHR3Mc9bEWipBJKmcDJOQG1X/J5CSLUOCEXILpekfU0t+SXLLRy0aqmQ6h21uSaoGtV+APop8zDggiquohbMkoBrWfgD2Jfsw4MmDt4KdrSBgUteRKDxm6aGqwurC41Q2Z+lrpYbp76H2NuwSbZOUuVu3ON0yHqj7pIc81Et5NuUVmrmJeoy0dNx5457SRDKqQzFKKj5uTNIyE2UTw0XGNIdo9us3qJdL8BibgavTXFBpukqtrsVtxiaJXtzskTPV1bgkmbNjDM3t1m9RLpfgMTPNX43RCFRIzbndOm6LKGj3d1rCZO6X4DDTbaRG7IgjarcjfyL2SftIdqtdT0TN7rdAZo5ZTDOejhjnthdWFxqhsz9LXSw3T32z2QOZC8ZEzdDjZL83uXq0BJ7Dv1I95JNUJmLWTOkraEV7ZLulvdOnqB03RImeP+NqyAvWN2NAbS1tdjvKQH3as1kCEfdMiZ4+4AIgNvvPyUTb7QGt030J/4PBFQyKr2SjXcVYoB/AvIT/muFtvP4cpdzpi7Y2F1YXGqGzP0tdLDdPfbKSAkTcLKRdS34iTr8RJ1+Ik6g4+Rby16p+qIq1JX+IvIwrd5IXPKgxb0nqP1fYjsFkqCWWvxP/DbXY5VT3pIA5iJTN4z8TJjX4iTr8RJ1+Ik6s1s7ajPL/j7nVI1k2L613SYuGDxvxtCRI0czEU3k0nltyKIrt10B4WF+8LjVDZn6Wulhunvto9ifXMDZ58tCvloV8tCvloVL3CD9hUUyVfvE/bbkvCOOk6pPUnA5wmCzg/7u+h/4Ntdicf+hDWeLfx2fy0K+WhXy0K+WhXy0KnpMJNZhIO2Jmt2HCm9yRitKM4mSJOwCjIlR02/ZA3uxMaQnIpyDuEjHpJiLXjVrC/eFxqhsz9LXSw3R32x1vVHXc3FGZ4sGiz1xIw7tgikQ6qkQyRh46VlFncjGOkJmLl2Cke8T1FUwVbuEjIL8bFbiK19L817a7Evr0gJXsSqQySvGNiHj9JK33qjiUj149fg1cLNlYtwEhGfGnah10jIr8ISSXYOrhQK5h7CxONUNmfpa6WG6O+2y/BjI3BGlkmbhFVBWiFMc1rRRmKN2yAO31oxPsp3bK++rULIHjnsqzRl40UzpOTHKmldUMZwI/Q1Hsl3y7VFvFRkm6M9fW12JfXqypADI3XDHOfgwZrvV0E28RFW/KCM/dUaZ80EBAaQSUWVjEAj4q1pIro14RhyuOEIwVfvbicFbQ9hYnGqGzP0tdLDc/fagbhM0J64mUT+OxPNNOIiyztx+6S3kGiju4JxBNnxtOXK1NcxY9yee7HBXEZuQyMLK0S3okgqvYuMRnZpWRNUBIsUodYea1JKHSUiLlQUKswiJCi29EkFV/FRiM5MLSR6g7kKCarWJkq+OxIUCkNFFn58z0rVdVsvF3CzdEVh4l1QQEQnS8rExqUzKLSS9hYnGqGzP0tdLDc/fePuKZKepPdj4e4pkgIhQqHHCAiFCoccJTGLQmMPGwsTjVDZn6WulhufvmYnqT3Y93YX6wuNUNmfpa6WG5u+ZhB5GkriaOY7d2F+sLjVDZn6WulhubvnibC/WFxqhsz9LXSw3N3zxNhdOFxqhsz9LXSw3L3zxNhdOFxqhsz9LXSw3L3zxNhdGFxqhsz9LXSw3LCOzOxAQHw6ZDqHtKOcMUMLjVDZn6WulilYZm/CVhnjAfCxNvu3lRsa0YExONUNmfpa6WMfsJa3Gzmn7FyyU8DGRLx+aJgmbHJX1tmP6a/WUuikunLWxSySiKm9ZNHDxWJtpBGilApckftxtDgJTEUKbLkGDV8nLW45a7tJM6p4m2DGpsgi2SylVeVJF5bY6QDQKHJRDlNlysIzf1KQ7xgO3ibddO6jo5qxJlHUKShMopREwLuBCjJ8hItyoB5hkiACEtbSC9PWblmrs4uIePxioRmxyzGAoGVMYSJbwxQGvSclEWKOW4QRcJS1sGLSqZ0j57Fk5eqRNtt29AAAGUdagIJhAADfnIBqAVE6TUKfLkY5q/JLW86aZqKSiykTbAjTdFJBPKUWAtcjqUUgB4M6fOiqmJRTAYMqWg2b6pSJeMDZAfYxNuOXNMGDVinlKKFIAmUVoiYF8MIc6MmICVbllmKBiy1sorU8aOGiuGKhnj8YqFZsAyjGAtCqY9ES5eKMUBr0nTFNYDDlOm6LlKWthQlKEOmemDB0+UibcbNqD6DKMvQJiYQDl406YGoDKJUmoU4ZUlGNH5GdqokXRSTRTylFgKPpOoJSgHkTpUCpiUUwG2iihSUIqK0RMC+UEOdCmJRIt97A5ilAyhj0RLl5gxQGuR06TVKbNEeQHW50VMREA5ebOmBqAyidEUKfKOsUK9Jz0UoB58yVFVMUSmAwYTqlLQiopRCAX+hCADQkEolWoFCCPqLQrJ8hUOcSJAH9GEoDQpFr2S0CZQoA/wB5v//EABQRAQAAAAAAAAAAAAAAAAAAAKD/2gAIAQMBAT8BNJ//xAAUEQEAAAAAAAAAAAAAAAAAAACg/9oACAECAQE/ATSf/8QAQxAAAQMBAwYLBQcCBwEBAAAAAQACAxEEEiETMDFAQVEQICIjQlBSYXGBwTI0cpGxBRQzU2KCkmBjQ3OAg6Gi0SSy/9oACAEBAAY/Av8AXP7J/oijAqv5RWjg0BVYadyuvFP6DusxKrIfJYcbEKrDUblQ4H+gOVgFgM1iu0OvcMAu/PVGBVHjz655A81V3KOpVjNO5UeKda0YKqsnyVBqlCqsxG5UOB6xoMSuXgFRozdJH3pOw3Sr0kDMh2RpCvWeQE7WnSM3jpXab1f2WrDTm8paJQwbtpRjsgyEfa6RVSangD43ljhoIQjt7bw/Mb6oSQyNe07Rm6twK5Y8+q6MHmqnE5sySvaxo0kox/Z7a/3HeiMk0jnvO08bKWeUsP8AwUI7WBDJ2uiVUGozVCqx/JXX4HqejBVVkNe7N4ox2bn5f+oV60Sl25uwZqkb78fYdoQaHZKXsOzeIXJxHUlBiVV+A3KgzdHuvy9hqLXOycXYbnhHaOfi/wCwV+zyh29u0ZvvWOI6h7IWGbv2iUN3DaUY7LzEe/pFVOoCSJ7mOG0IR/aDf9xvqhJC9r2naM3VvJKo/XeRo3qpxObMkz2saNpRj+z2/wC470Rkle57jtOqX7PKW7xsKEdq5iXf0SqjNYqsZ8lR2B1m6wVVXmubqTQIx2Xn5N/RCv2iUu3DYNYutdlIuw5UY65L2HZvEKrTeGr3AqDNlpdlZew1Ue+5F2G6NbqMChHaqzx7+kFfs8odvG0ZvcVQ6Rqrz35q9aJQNzdpRjs/MRd3tHXxJDI5jxtCEX2g2n9xvqhJE9r2nQRmvHXTJNI1jRtKMdgbdH5jvRGSV5e46Seor1nkI3t2FCO0cxL3+ycyzW6uIACMdjGWk7XRCylolLz/AMDqYNvZWHsO9FSN92TsO08dmtvsuVdkWgUb1TVpoQpYbQ+/kwKOOnjM1ubwb9OqrV8I4zNbm8B9OqrV8LeMzW5/L6dVWrwbxma3P5fTqq1eDeMzW5/L6dVWrwbxma3P5fTqq1eDeMzW5/L6dVWrwbxma3P5fTqq1eDeMzW7R5fThvRwFre0/BfiwfMq9kRIP0GqoRQrJQMvv3IyzWZ7GDSeIWWeJ0hGJor89ndG2tMU6WSyvaxoqTwXhDk273mi/Fg+ZV58Bc3ezHhbLFZXuY7QVdpjoor2SEQ/WaJkczmOLhXkoMjaXOOwBVMbYh+tywkgPmqzwOu9oYjhycMbpHbgFVwjj+JywkgPmr00Bu9puI4aWeBz+/YuU+FnmuSYX+DldtELo/HgtX7eMzW7R5fRUCbabW0OmOIadDEYrKzLvGk15K9iCm6iDLZDk/1t0LLQXRNSrHjpKorHLG75FG+BWl2ViMRxjOLHbxwNjYLznGgC5ZF6l6V6aRhCx1GD1Voa0VJZQBfe7aW5WmLj0e4IiyWcXe09cqOBw8EIpBkJToBOBTrRZmBs4xIHT4LN8Pqn/aNpAvEksvdEb0WwsfOd4wChZDDkyBTTXzReS0UHLkdpKIslnFO09cqOBw8FkJG5KU9E6HI22yNoz/EYNneo7PH7TzRE4Na0ct+1yIstnY1u9+JXLjhcPCiyLm5KbsHavvlmbSNxo9o2FUf+DHi//wATW3PgjaubhhYPmuegieP04J2Ae3Q9jtIRjGMbsWFWr9vrxma3aPL6IzPFWQ4+abY4nUfL7R3N4jrBIeTS9GmWpowlHK8QmzNxboe3eEDGQai9E7cU6KRt1zTQhff528t34YOwb0bBZ3chv4hG07k3xQTo2u5mI0aN/fxLkprLFge8JzmijJRfHqrL8Pqh9nxGjGir6be7g+8uHOTf/lOhY7mYjQd538NRgVz3KcORJ3qWA/4YddUAHsZTHhbKw0c01Ckjdaog6SPRXap3bTJ6I3tAYLvCxzn3Yncl6YYLRHJIx+gHYrX+314zNbtHl9EZNsjyppWWSVzNDTTYvcpvkvcpvkvcpvkrPK6yStaHYmmxX9rJBwfdZ3cxIcD2SorW7Cn4g7a+7QHn3jZ0RwN8VNL2YyeK6PY+MqzS7nEKy/D6q0SHbIUBvVyFpLmRUaBvoq/cpvkvcpvkvcpvkvcpvkrQ20QPja6hF4KC2UwLOV4aFdNJIZBpCJsr2zN3HArnrNK3vu8L7PM67HLoO4oX+TI32Xhc21s7f0lUmhkj+JvDa/2+vGZrdo8voovE/VS2f7oXZN1K317kf5r3I/zXuR/mvcj/ADT7N91uXqY3uBsEf7nbgorPlMaXW3jiaI21tXRye1+k8DfFWmn5XFZ3McoB/c9FZvh9VJ8RTPiCknu3rjb1F7kf5r3I/wA17kf5r3I/zXuR/mo5Mlk7jaaaqtnlLRtbsKpabKD3sKo974vjarwZDJ+pmlGezuMsA0728AY2TKR9l+K/+iyub3sNVdMwbXZIKK+xjWE6HxKknKjd7LxtVr/b68Zmt2jy+ikh2xv+qe+nJlF4cQQQAF9K4oS2jJgE0FHJscbbznGgCLpSL1L0r196a4sDDzQ3IiQAki7K1Ohfi3Sx28JvinRHQ9tE+F4o5hoeJPaiMALgUFnHRBcVZvh9VJ8R4G7pYvROjcKOaaHiOls4bdBpyjRSQXoQ+MAnlb0Ip7tSKi7wiWCQscNyjme0c42jgnuhfFcvkCp70+F/tMNDwsuvOSJ5bNinB6Lb7fJWv9vrxma3aPEfRAvPNScl6owjKsxjKMUzCx42HgDWgucdACM845+TZ2QsjGaxQ4eJX360N5xw5sHYF9ygdzTDyz2jwCUYsOD27wgYyCaXonrJyNuua6hCvvN1o0lffbK2r6cto296oeARQMrvOwK7eoyMVc7epbS7pHAbgrN8PqpPiPAbBIeU3GPvCNusrb35jR9eEQwMqdp2BUJ5ETauO8qSWc0Fpw8NyEkIrNFoG8KhFCOBsUTS97tACjie4c22ryrTCTysoZG+BRt8Lasd+JTYeFjGtNwGr3bgpydLm3G+atf7fXjM1u0+I+nALPawZIRodtasXQTeOkKuSd/Mq8MhD3k4p1nsNWtPtSbfJZW2zxsjjxuuPtFZKxTNfI/CrT7I4hslpfSE4tceiUy12W0wmYEBzQ72grT/AJaFnttXxjQ8aQr/ADMjjtBo5VyRPi9XQ+JgHQj0q40ZOAaG7/Hgs8ctqiY8NxBcnkdo8DZI3Fr2moIQjt3NSdvolZS5DIT0mH/xVMRPi9XGvib+iPSrtMnA32Wf+8DYPtCtRgJf/VlC2GUnpNOKrk3fzRuugiPdi4o2ezgxwba6XJs8Lrr26EGWgiCXaHeyVfyMeO2N1FedH/J6ycTmYdCJXn8mNvsM3K1/t9eMzW7T4j6cT8R3zzLfFWn/AC+H23fPM4Gixe758XA0WL3fPi8lxHgVi4nz4bX+314zNbtPiPpnW+KtP+Xrlr/b68Zmt2nx9M6D3qazsimDntoK65a/2+vGZrdp8fTqq1/t9eMzW7T8Xp1Vav28Zmt2n4vTqq1eLeMzW7V8Xp1VavFvGZrcttgGVa/EtGkKhwPVAYxpc46AFK60ANMlKN2jjM1yr23Je21Fzm5SLtt6mD5eYi3nSVSCPlbXnSeOzXaFGSy8xLu6JVy0RFu47D1FzTKR7Xu0IPIy03ad6ZluqubmjHMxr2nYUZPs93+270RjlY5jhsOvZOzxF5+iEltOWf2eiFdaAANgzR7tVvtXfm7loiDtx2hGSzc/F/2GthkbC9x0AISW910flt0oRwRtY0bBm6NxcsdX5WIWBzZcW5KXttVZGX4/zG6NYEk/MRd/tFXbPGAdrjpObxKw5I1q8zAqknzVRmqEVCMlkIhk7PRKydoiLD/wdUrGy5H23aEHXcrL23ZvEqkejeqnE67yD5KjsDmzHNG17TsKMlgdeH5bvRFkjCxw0g6hcs8RfvOwISWs5eTd0QqAUGbpHiVV5r1D2mrDTm7tojBOxw0hGSHn4u7SM6I4mOe47AhJ9oOp/bb6oRwxtYwbBm6DErlaN3UlRgVR+I3qozZeBkZu231XOsvR7Ht0ZmgQktPMRf8AYq5Z4g3edpzeK7I6oqw0VJBTvzZa4Ag7CjJYjkX9jolZO0RFh+vGvNbk4u25BzW5SXtuzeJVGCg3qpxPVdWHyVDgc2Y542yN70ZLAb7fyzpRY9pa4aQeC5Z4i7edgQktPPy7uiFQZukYqrzzXq/tBYZuk8fK2PGkIutExljHstGHzQjiY1jRsGboMSqvPl1lUYFUeKjesDqmK7I62vMNFR4p36jVxVGYDeqnE9c1Zo3LHA52pVI/mqvNeve0Fgc1RuJXLPl/QFRgVSTRvWB42nFbm/0JVhoqPwKpeC0he0qNwH9FaP8AXP8A/8QALBABAAECAwYHAQEBAQEAAAAAAQARITFBUSAwYXGBoRBAUJGx0fDB8eFggP/aAAgBAQABPyH/AO5cTY16F2f4cdMFf/Ck1Wdy2UM1PggeT28FCj7UzW+yXgEEWf8AwIBePQIe3qhFABtBUJJXuKEJ9kYI+urSWEuxur4ecBoRurAX1lwr8sKx9bGuwO62XMK6nfVJ8clwFIFs+rg3ZW0teSIqCUSsrmseyVVFAFvUwF5WUcW9q6MIFAoeUpdqS5rIPsBg19PWkH2ARWr4RLKG7V6LvdWkM0Fat1q5yhSNFzjd3IU1ERw4hBrPpoWMRw4jLkK6nd6BU+ASo8lvwtGbkuq1XwuVqXRJpjAV+iYSZlru3HocE0teyA2fSRbsuApFSfHd3iACdAl0xhSt0fcxayLXa10ofIZzK2X4WhMyXEbO6CgVGLe0dWEWgQAW9FAXlVRSuvHsgAUCm6QFQBisscK1R7mfSUZjItyjdE9Q3ujSEaovjyc92TQmN1fDzlpbMGvoKhA9gEuayUu0N2i0s9XrpENB3oPNz3oo1GiZy9ErVXuZ9ZxQgtzjd3tKaiJ3WQaz58LGXn7YLZV1d37rS8glAi9qHuZRERVxXyGFjZ6McumQXw+pgFWWpvEUoX1yhNR82Ldg2gpqT3p3d4hVloT2cpfD7mPzZ6vlPc+XmEpmGtU9zLrEAgjgm6AoBIm61KVG8SA4eXQFWXmEzW6ZQAKBTdMhBiuUo/Btf3M5W++RyDzBrUr1OjlAWtno9Nd3QRMwoOWctuD5a4lDNlLtN2RRHB8OblHWmrfVr5sAiGCSlsNr+5nKf3yOYbs+pwWM10x8papQubZuq2jkX5RLrGtd7jl0iqqtV89htkWkvgMArdH1MUATqO6rrUoCHk8afK7jGTMtJovFK/R9zHQU6r6FS3XEvziW0Pa72HLrBEqNTcdlMHk8aYfN2lt4irQJRuK1X4ZppQewZejOWVm4c2UJ6rtdGu32UweTxph83abQKi0Llb6+kjWXAjRJQVXEzaue12UweTxph83a/E0elY781drspg8njTD5u1+ro9K/Q1drspg8njTD5u12Hxelfvau12UweTxph83a7D4vSv3tXa7KYPJ40w+btdp8XpX62rtdlMHk8aYfN2v18HpX72rtdlMHk8aYfN2vx8HpX6nHa7KYPJ40w+btfr4PSv3OO12UweTxph83a/DweINJwSl95cEnT/hGdB5/ExjNwWRLkOJYqHFmMzpLGwKNqBwINZAGm7pKnOjpQICoAq4BANSYfC4wFQjp/wAIlC8Wp+/ES3VOlGZuv4lYOrXBrvbGUSp9TrSYIHKpYLdOA+xK0d0rP5ExR/3DxPLuqgWq8rnaV47pWfyNaP8AxHjSazGmg6ypEtFvwRs8NofJKrc4Is8nw7P+trspg8njTD5u13nxQIAq2CDHb8JeYSg2Qf7E1BcT9w4QbVajmTkes+BgtutglTm6pk/TK4n4ozPBaYgs2OaN1D9gRsUTq8XFjXqeM2Wr+q9P6JZ2sFu9CV/pio/scrZVJeDCDPQKH/URFEomM7n8oGrl4r9zBLL/AEWXcK60grVU43ZEfspYW8Fu9CV7pis/sP4Ki14Q/wAlKXXwHA4QoLMcOMxWuQufspkkCinQlV6Oq/qXUAxanKykaSEbM4TFMCsZ6dUoSFqHpX6OMXaREV8wNrm5/wBh8M2O7+zjdI6/TTmTs9o7KYPJ40w+btd58Upl2UuC8PuOSFUsf+mxUJUqmTmf2U1VN+WkrtrBJRP1ToxFCysmUuyLb/QzEAr7/ITt/wAztIiauJgs/EKNRox/UsdxyGW0RGj/ANfM778pau4czLk8NUVHQYfcchXGYZniBIg1EyhBZVk8GPUnEL3S1OzCVCpddLf3xe0exqTGbx3FNfmHBlXoIwa/a3+18RPr1W1NfeWttrqrH+TsNo7KYPJ40w+btdz8UpEuTyLQWHQ1qDYOc90d/tFZgnRdPep4cUgv3RlHXJTJhKRRRHd/UVWq1Wdv+Yw+JnOkVWri7FVFkTleA01/cyv8nfflFXV7WtIxuKpHNC9rosipSrd2Jznw52Uq3lCEnpM7l2lXlcCYcTRmWXL0/wCMfaKZknv4nSoauA685WEk15w4kRIjBvezKsBxDx7LaOymDyeNMPm7Xc/BENHKr7oiGJhK9p+79T936n7v1P3fqVIqyx6Ua6eAp0G+RnMrlkHBXePm/ivweXh2/wCYwcVWyyxmH2ha5/tO5/KfjaxA7gfNKJ3e7StCfu/U/d+p+79T936n7v1AK6ynGvWV65iX6UANQ0/ZlBQOVj3KxXWueA6kwVgU97U8BJhhbHJxIcCWdC9mfnade0x23RQ9sGHKWE1uDgzsto7KYPJ40w+btd78EGv4mnAf7MBQN2fjYfsFcoAS12WrKxSFEWbDu/8AkuRB9lIcJ/ZwX4K6/wBJWagLt/zMZ0vqSvaEuWxZIdeLd/kJ586sfE7n8p+1rBo1MSOta0b1oZXHGXE2L/H7iodSQuSqmXCVFlXKonijDsVjzl2gMnXBiNU1frQRpCxo3nHihIOI3GvODeKqaN0xbQ7KYPJ40w+btfiaJQdDytGCwOFXhyYinaIeCFwoCqyi6CnwecDXZCYZr/JQshl1ubK9lEPR5HhUn/BGcfjeaacmVHB1ZNZT/AVMCNKb1Y6OMCgImI+DVmvBdVhJh92bNlkD+QE7n8p+1r4UJLtbqHSN/SW1+SNmjj4PyZ4DqsJnNYf+zKpF11bL9pL9kuZnEZuRREueCIwoDGHmVcjXFlB1Rrm38/sXDhw63J8aBZ6K0GoCiNWyYtodlMHk8aYfN2v0NHhYkQVy04kTgnIVP7EWthoUoorprPvMnNLZGmjnK/3Ao36pTa/FjW5zn4gDvUtocmElWRWpjzJ3+CpbL49HUh1v3Ds5UHhWpMuXKCuh/ZW0XWrfi8CNRFES7CWVFB6+FZshrjLLhag/xlwaQKxSlTJ6RtQOBivb+wjURWpjx4oKNSzEiAURWp+Ywzg8PuJWVUtF0jdSF6/uROcx/mEd2mq/kTnCnYD9xpNa7EPa0fuQ16SoRcBj8WgTTg24uLMG0OymDyeNMPm7X4WjxLXIEUKPPFVqqvHcdv8Amd/8BRqNGKFFzSvcs1ZcGBUWcXss1ZcGBUWcXs/DGTv/AFXjg2h2UweTxph83a/K0b3t/wAzv/nO42jspg8njTD5u12/4b2p2QZX6DgUr7+c7jaOymDyeNMPm7Xb/h6V3W0dlMHk8aYfN2uzfD0ruf62uymDyeNMPm7Xbvh6V+Zx2uymDyeNMPm7XYfh6V+Zx2uymDyeNMPm7QIncB9M4gBDEcvSEB5QNViW3VStCuPvtdlMHk8aYfN20Wljo9dZooU6nUy9GojXvRtcCUR7Mz1tvspg8njTD5u4AgCOIyqYa9B2Muk9z5eQ+hEm/ZI/cshmVY5MtzQjmEMPJmqiqZvWtN1iFWGpFL5nW+X3MbGx0fPasXTDmcpRUxafwwsFqAUDdUOMlPK5nMzWW8aaHd8EIbcplyhXoHYz6REUSiYnmrFah1Wau3Wu5uUyQrO7D/MSnricfKpLyWdY3Q8fOA1J3ZGiJ48zOM9A3OrTy4K0LsuRe9ljgZdZU5Gq5zuws7SWb+mXjPzAJeLUILa0dGECoVN0zMlkSzK3yv8AhaaaUfgfKG9Q2+jWGjQ5OHIy3dSEEo4pqQK45mwAw82DclTW17I57nu8YMw1mucVr9X3LFax0TyFe65HMZRGG/6XhMwWALG6UCq0JfpcbKXdkMsefGuRHHgMsypod3QpGi5TLvTvU2uJ9Rs0d5hQ2OrLIjGt8vqYPZBpu/anI4vTQhdj0JKwfcBLGslbtTdi1EyceTOIm+Zp/W5CAKuASrla9E7GXWcYIb853dwL6SwfbCsPRgF5VUUrrx7IIlRruiwtRCoylZi1fgiLLepbkc9oVqw6HTWaiFOr003YVSCV7ihC9yMAPSRaJLgKRQnw3drnOQlR3Gq28nOIDygaJ4cYIbc5lVIV6jsZ9YAAAMA3SgVWkrNw1yl4BBFvTQsJaPtlwL6bughZketE7hYXfmkw8bHQ3dCfDJcBSBaB6ggwH3QnTkIFUk8oLdV0I5nowLD1QReXAEzW+yCJUa+QsoSzrIHuBgB6uLcg1SupLJybvQqFAi2tXVhKijgYPWzsJZH+sKztN049Dgmtr2QGx68g4wq4ZmSniuhKkJNq1tWgiOPCINY/8EZcl3ZDCi6mUoxWiBV96AqoeUaDx85eW7rAp/4XECLyhDJEAw/+5v/aAAwDAQACAAMAAAAQAAAAAAAAAAAAAAAAAAAAAAAAAAAAAAAAAAAAAAAAAAAAAAAAAAAAAAAAAAAAAAAAAAAAAAAAAAAAAAAAAAAAAAAAAAAAAAAAAAAAAAAAAAAAAAAAAAAAAAAAAAAAAAAAAAAYM0AAAAAAAAAAAAAAAAAAAAAAAAAAAAAAAAEQEc888AIAAAAAAAAAAAAAAAAAAAAAAAAAAAAM08888888IgIAAAAAAAAAAAAAAAAAAAAAAAAIw88888488888ooAAAAAAAAAAAAAAAAAAAAAEQs88884+cuS0888scEAAAAAAAAAAAAAAAAAEcMc8888Oc8888q48888McIAAAAAAAAAAAAAAQE88888ie88888888+08888YEIAAAAAAAAAAAcs88880u88888888888868888s4gAAAAAAAAAUU8880+c88888888888888eQ0888cAAAAAAAAAAU88uc888888888888888888a0888AAAAAAAAAAU88+88888888888888888888c888AAAAAAAAAAU88+888888888888888888880888AAAAAAAAAAU88W888888888888888888888888AAAAAAAAAAU882888888888888888888888888AAAAAAAAAAU88y6aK+4CGSe2K6Gyq6eyy68888AAAAAAAAAAU88mawKq6Wq8aiSOw2O+OK8ue888AAAAAAAAAAU88KuOS2i068+2wuOKGO66eK0888AAAAAAAAAAU88eKmqO8S62GeUuSGGSue228888AAAAAAAAAAU88e8s888s+M8888M88M88880888AAAAAAAAAAU88W88888s+8888888888888c888AAAAAAAAAAU88288888888888888888888U888AAAAAAAAAAU88288888888888888888884U888AAAAAAAAAEc8886888888888888888882M8888AAAAAAAAAAY8888s208888888888886e88888IAAAAAAAAAAgI88888Y68888888884G88884wAAAAAAAAAAAAAAgU0888se+888888iM8888kIAAAAAAAAAAAAAAAAQUw08888e088is88888AQAAAAAAAAAAAAAAAAAAAQEw8888Mem88884EAAAAAAAAAAAAAAAAAAAAAAAAAw4888888848YAAAAAAAAAAAAAAAAAAAAAAAAAAAE488888w4gAAAAAAAAAAAAAAAAAAAAAAAAAAAAAAAQ48UAAAAAAAAAAAAAAAAAAAAAAAAAAAAAAAAAAAAgAAAAAAAAAAAAAAAAAAAAAAAAAAAAAAAAAAAAAAAAAAAAAAAAAAAAAAAAAAAAAAAAAAAAAAAAAAAAAAAAAAAAAAAAAAAAAAAAAAAAAAAAAAAAAAAAAAAAAAAAAAAAAAAAAAAA/8QAFBEBAAAAAAAAAAAAAAAAAAAAoP/aAAgBAwEBPxA0n//EABwRAAICAwEBAAAAAAAAAAAAAAEREFAgMEAAgP/aAAgBAgEBPxD4bcuhdI9TqHzukd2KYUwph1jWOUYjEZjhGAxGblwONZKBKgeUqBTCmFMKYcSqFvVIuxaFQKoXl8O//8QALBABAAECBQMEAwADAQEBAAAAAREAITFBUWFxgZGhIDBA8BBQscHR8WCA4f/aAAgBAQABPxD/AO5G1AMZRbhMAKuswc6xFTkoKSf/AArARFLrHV4OtOpNk4KhIOMLPw4QHEhTC3YxUtULEuDw1NAf/AplBFTMvkUAlAzldaFnWQepDvEUkqF8w4peBDEIaMkZ/egJWKvXLYDGju2rcVyNub7SQEynEoiKNxCzpVgXaNCJb9yoY0oRmj5M/W4KBA595feWI6Q8lSCBbAs0WSf26xIilZu5YqDfMlwOlABAAaHwGQA4iVKDiSxVkRu+DU8Q/s5YgpxgjbAqAbNIllFgDgHxHB071JlDixOKehQxsNAJH9eAlaWhUwuNTSZLXeahQOer7ZaYpeK+B3fNPPUDgNDxbJHFHStP2U1JPbQ2JaaWygbYgblWwTpQjh+rUC9IJC6UVhJjiJsUjuS8+2lhi8yug3WriVJInzh033p9fy5GquP4f9MhZslSfW7B7jjyX2aMO1lHDo7Ptok404F3Kl1NC6qeE/qUyRFEADbosUcR0g4PbC28g9Q1HrfVu3XHnspS6SquDQ2PUalYjZDRLCpOnACr84vm29Hq+DIaiY+02BihzqQbNiXVMyeTUkQ/pXigikmDdsCoxOJCwokIGQe0NRpRAGtR6mlCfc+HdSIkZ6Qjbrj7TLJb9g3YvjtRMVLAK7X97e3zFuZS3fVsKuXDZHGgEjP6ECVimoVMLjRc0ODF5owcO/twzcsgu/A832p+iNwB3nzbb3SbkSBhHWoPxQsvZ4Nu6g6IJZJ0W5zh7ZKHLtJR6mPpclTgZoRw+aoF6cTJ0KvNXcUu6U0vON5fbdTIkGXoN3+VckpTD3GHYvvTY3lEq6r8BThyyHUqyYtc/I/3solJyanbB29pBIQRyak3uTJg9KltNDi60QA/LfpFOWFiEHSk1JsjDj2y0nJod8XalbKXXnr/AHspt5y2nfLb4h5Uoow9Fs/2rKECQ+yx7d1HhaUSJqPtO3rESowAs5XSrQVaBFAyh+OqSIqbJWJyOWnRpzKokIGQe0BSZVANVq9HyEH8uJbemgkrLD0Gx/fkQypugnefFtqO65bFd+B4vt7aLSDFygVGYYP91fzDiNmhEk+I2Jq6MblkUYKAxzfbCmKwKu1/e1NYRvmDdi+bbfLZuMohHUas9sFA+WHZvvRkyC7L0W57akQbif2lrZPiDlbUYayube0oUye3Lfq23rFHybLs+Hc0zZEqsq/Obwsqrh1NmoKLdztxw57KGW8gg5PaI7D31auPhqOOrw5v9vYEO1lHBq7FSr3Fd91w57KYT8os5f0UgrT35bdS9YD4GK7vh3NEhISIyJ7C7ysH4fj191r6gelDgaq4VcBhMjbOL4tvSCV76A0Cw/TGFIhax7nC5tQsYJeD/B3PX5asH4fj191r6p1RBlFMMUuf6lDvS5GomFGFvnESRwMW/q8tWD8Px6+619SWb9UQ6b9T5asH4fj191r+27MfLVg/D8evutf2G7HeqfLVg/D8evutfUv2E0ny1YPw/Hr7rX9t2g+WrB+H49fda+pTxfsNh8tWD8Px6+619Xjfqt9vr6vlqwfh+PX3Wvqc7f6pFny/z+r5asH4fj191r7GXFE9OQBamJOClWi57zVHF5RsOzwp9Hy4TRHCl4WRADGJSaYLoBMjBMLF/Re/XJciVbFPTMoC4C8rXVSYEm9O2CASrtQ3jzdhqXeFWa/kvNTvjI5GqFnakRRESyOX4wyKBMxJLqUipZtCbkRBnNL4nMkGsRHUKcEN2ACgyF7UyXocdsF6BtkgXZFOtIdDsrq1xIqQnzgdY/OH4Nz5YwN2gC4m7HIWlmhyV3qYnjsDy4OsflIoILqbgO9AXTPp3CmKQY1vYPNAHREzxlno/j6/X1fLVg/D8evutfXyWAwAlVwCgJUMEMSRs61w80bVi2HZCX6YN6vjbN+b6VcJLbxbhuLU5lWTHEimI5OJXECGrce1SIruwhCx1B/1RHTDjNwew98/wMey5WYAq7lzIJCUnQkOrnShLHaSEh/wIKhq1GVEAOtTQSESXAc8kl1wtSAJISd2YjqtGZTuXxyUtOhBolm+yHWnnOgyLomBpc8GmbIQJCJl+HCbBqAV5rGJORzSlxRYZ2uPQqceuMGQggJpFySI2xmC4DzRmxoW5RiOrQuY7lcclCZmgWszDuO9TxhBWVw8tRljQIlqcA4rYJelKuASDf5qtgUHEMHBrIBxLQyTLh0clFyUbA8X1uEnmnhzQtALJNkyY1oHggpDNsOSp6DUtGokiYv9F5pEmWBbdgeKFJ3iRdpR4o+4QCRhJlsKzSHMZwrct2aF37z6nlqwfh+PX3Wvr5DmDAlK3pD0FISWzEiINFScDr6BzVSTFh7Jg2daKm3EWsX6o7NJjAS7K3OTEda4gcSYOg4H+qHlVMIMNWbY9wfGHY25q/TkUBwupjq8V9jooiSCQxqRgDLFhtVbGxv+QSAZEYRpbjwrov72R3N6DGEAgVQHRP4IGzOCwKS0ZCGNU0/DQ0kouyAcs9lTEGFZ2bW8hsb/AJI+JCFGCOtRSKGTlSNw6zQCzLWJV2rInpwg7/ya+I0IklPuK6VRyR7UYhEXOIH9atZZLhMVj8hLhYkWWXAGgslZhinRIq+r19Ty1YPw/Hr7rX16oXhq1hP8e9TeIrAgTZZevoCEJE4kUIoukNXOgboSf6fhwQXBslh2wHRh1pWAeSDNcr2dS1H+x6LiuHdlSBCJVZVr7HRShw66Bx5ikTqkq5voFi34LA/3vQQExdgH9fjA8hQnYwdgrDIA5WKvXgShIDWQpyZKONcfQEIQGYyAcGOiVrxC6bqbHoU8Ey+FkmQ9qn71SBaX/oUUYydgUnms0zPwiA2mLMSyAxOoUYOCAIN5GZp2rA3cwzeJniaQnGMD3SPyL31n1PLVg/D8evutfWuMcQ+VVtcF7LjGCa/5uv8Azdf+br/zdTEohm04IafhxCLazbn8DNaRSEZRjuN1BLQdZiaooNjC2mGn4+x0UfyybaBL4PSHluAWf5KI1uE4JP6fjw1Rxf76xnBeI1LaI5YoxOVf83X/AJuv/N1/5uv/ADdZ3arxKlMEUgek9xHbqXpTeWkLve/tBWRlP8CoWU8srs81fiRYnWFtwwz/ABYpCJBpJ2GKyo4DwD5oIusUh2UPlTwCQRHWFrpTLINoizGRp29YXlqwfh+PX3Wvr/tgzTK8RHuUngIXWWIe/l6MNiIcSq5f/tRSWkOC2IwgaMJYuVmAKvmXmAhhegGbzRKl2hZI8sXtXFHqfBoOJl0o4k4KytnkwTWvsdFeGmtD/NIkXzVJPXHr6HjCkMWIOA7qL6okyX/Bd/w4+/10xJCSc0RQO2j4hmlPJFiIj/PQiHiioCxa+JSCP+oZgK93cpmz7SUTFC4n5G9ZI3AYJs1gHSUoKfCj3oPNaIiBBXtRaA+YSIxtb8u2wgrYQZDESkotEuaCcgnWsVt6ry1YPw/Hr7rX1Odka4wOI4Tb/DjstSMMS4hduhF9YastpOTc1Nz8CDkkQ5AY0YktY3Gm6m7wFGbmKlWFqEA4asm5oHzmQdjmr3eQ4PLyPH4YeKI2dv0Yn/7UW8qyRi7CZdKCGquEIJUkNyYBgl71EFwNZFhzBZMyKWC8AhHRPwOykw6rJHlq2yKNx03WwcFDS4ucG3SA/Dj7/X+AryCYjJ7qWNHapCJpZoYWdsTrrQUBAwiXPwWnFncZI/tMxQyy7rGtgOCiUNJiORwR3VI2wuLwd7CcJnT6uQ5DERwfwPGM+U/43oxRMlil50Fe1BYn2vLocqHD8uCJEwyIlyefzkmg1mUnVwCkZhn3FYcEvT1i8tWD8Px6+619iXBGjo5HC7m9RutYtlDFUSSE/wC6UOBVwrwqvgpInKTrQYh1X4oAJgGIBDkxdcKZPNGYAyMFgd8qVVUqsq5/lSjsKxSnLwPNWYsDiADPyHFfTbUJ+zbADK1xN6jkdftgJLko6dLy/bJSoiSJPuzv3VmTdBTBjF0MDf8ABaJlLmhOtBsPDBFQ/gIIoALBKhbASjuMXfjipG+tPvlRLzWI4Er/AGUaLMoLuZt1Q4gESVrZ7MDzQBEGRGEaOCpACsRLjsxzoWDJjLyo96YXRf8A2arfIAWytLpPxQqAMkOxnnpUfBpwdUZiWSp2wNu5y2B0h1p+K6YN1/8AFZn2Tu9yl49vqu7Y5WaLEkEsDinMze1eR6ry1YPw/Hr7rX1OfyklSI6lQWdBF/amSGal9j7HRX0234mSDMYa3TQQ/tZzn7G7DGHxW1kkH99O7DGHxWxAkH9rOc/RZOWP4o+C97+vz5XqvLVg/D8evutfhsvsdFfTbfogvLVg/D8evutfhrAFKMRoM04dpeVmxKPmC99Y9Ty1YPw/Hr7rX9gs+r09Ty1YPw/Hr7rX9gUF/wC8er5asH4fj191r6mMOn+qPpdPV8tWD8Px6+61/YIAT5/4/V8tWD8Px6+619RpAnREBjJtlfambjAIVon6id8YqtgosY8iBk2FyT6vLVg/D8evutfXJdy2S7cDzfenhE3QDvPm2/6UFQBVsBVuwu7r/rHWh4Lh3myGxB6/LVg/DHboQX2n2BgtAJE0Sr6EKQ+4x79lPlSwBD1Gz/f0TISgN4jitigDLxOr2eV3f2WGRRJpWF8OJbUCJCJZHtEJODU74O9WxF1f8L/O6lOHDYdH5w6ZCJBapYc1GT4E42+fXBtUEoCAaAYe1F5sNow+IIORbQVbTnWn206IINJ1G5xhU0ppWXufLspmyIQhH5T/AKZCzYKmuSB0Jh8CXco4zWgzuuK7vtmrj2g8mkVpeVv8UEhKsVDcGNHdtSwrgbcz2yIqWAV2v73plk8FYNmL57/HAAowASrWETA9dPl2NBytHeVv0IPbtBMgutKoT6YiipEvFcWi3x0wBqRk8yoBs0AXUWA+CZ+0ej4MhojjVzJkiX4xfFtqdStfJHULJ8Rd8tsieT470eQ1yKu1/W/toCLVphtyv0KA1bpoNgR8tYEzS801LqgROFGBdn2xTtAo5NHcqSa+rHsuPF27T/okLNx+ADMUsQ9VsVbogRh+MXzbaj1bBgNAMPaZCDFWgsOE5H+6FuDAyKgQHzkGlAE60FhA3xA2aV3JafbelaO05/GSogzS6HOPPYUFARGEcvcV4cNp0KyzQX7sOHHdQMFgUc7u77acE1pMOaUm/wAmBUDIot+hAQk09KhhYatdDgxOaMHTv7YiQSBB9nlZ3pEFgN5Ga2fZWC0AlXQKtGQJx7Ly7KPo0gXJW7xh7aZFynFoiIu4GLrVkSdWgDD9K8ANJNm8GoxOBDFRIQcx9qCEBANEcakXkqVbbN9zYouFbrVqFhx6nku3RTbi+Lb0UIiyC7cDxff20O8TSSqWzHilpFMUloyA/UpBM0SAFumzRxHSHh9sKg3nw6jiO5US7lGh0wuDDzUp4xVaI/giDEBclbHGNW7oEB9l5dlHhaAQBoHtMgAxVqTbhTwUtUrMOBwVFgH6xBIaYTdrQExNwWzrQZMzvE9tq8YdpsxsyVOqTLzu/wAd1AeOCQ6HtrEdIOWpABtg2KiwP2AkJNPyIYJDTQ0LZhzXAYn4hSZcLy1AB0Zu81aAnWgAg/ZtADNT1CzBg8lODTmZRIQcx+BCgctWp5ozYvFNSqY3GiID9u/CaXg2KW6UaPq2u3utgYpcqkGzRBZWaEb4FHQA/dIJDSCQOTS4MNr4CrAXMrJ7QJOFGAd2pdXQsKjhEfvjIE0ya3RQA25X6lcQifVxarzSWUzbETdqMBOtAGH/AIFEA0vcmJk0cwbQXUAVWBNOgAxYUkJzK5rfxUuqxct1XaAQH/hcOWrhEdihuE9awrsUHAD/AO5v/9k=;" vertex="1" parent="1">
          <mxGeometry x="69.44999999999999" y="260" width="100" height="100" as="geometry" />
        </mxCell>
        <mxCell id="3rgK-tgGbQ6Lh1-LBTqX-12" value="" style="shape=image;verticalLabelPosition=bottom;labelBackgroundColor=#ffffff;verticalAlign=top;aspect=fixed;imageAspect=0;image=http://nodemon.io/nodemon.svg;" vertex="1" parent="1">
          <mxGeometry x="83.54" y="489.99999999999994" width="75.83" height="86.58" as="geometry" />
        </mxCell>
        <mxCell id="3rgK-tgGbQ6Lh1-LBTqX-13" value="" style="shape=image;html=1;verticalAlign=top;verticalLabelPosition=bottom;labelBackgroundColor=#ffffff;imageAspect=0;aspect=fixed;image=https://cdn1.iconfinder.com/data/icons/simple-icons/128/heroku-128-black.png" vertex="1" parent="1">
          <mxGeometry x="705" y="360" width="88" height="88" as="geometry" />
        </mxCell>
        <mxCell id="3rgK-tgGbQ6Lh1-LBTqX-14" value="Heroku - server" style="points=[[0,0],[0.25,0],[0.5,0],[0.75,0],[1,0],[1,0.25],[1,0.5],[1,0.75],[1,1],[0.75,1],[0.5,1],[0.25,1],[0,1],[0,0.75],[0,0.5],[0,0.25]];outlineConnect=0;gradientColor=none;html=1;whiteSpace=wrap;fontSize=12;fontStyle=0;shape=mxgraph.aws4.group;grIcon=mxgraph.aws4.group_on_premise;strokeColor=#5A6C86;fillColor=none;verticalAlign=top;align=left;spacingLeft=30;fontColor=#5A6C86;dashed=0;" vertex="1" parent="1">
          <mxGeometry x="500" y="204" width="317" height="448" as="geometry" />
        </mxCell>
        <mxCell id="3rgK-tgGbQ6Lh1-LBTqX-15" value="Localhost" style="points=[[0,0],[0.25,0],[0.5,0],[0.75,0],[1,0],[1,0.25],[1,0.5],[1,0.75],[1,1],[0.75,1],[0.5,1],[0.25,1],[0,1],[0,0.75],[0,0.5],[0,0.25]];outlineConnect=0;gradientColor=none;html=1;whiteSpace=wrap;fontSize=12;fontStyle=0;shape=mxgraph.aws4.group;grIcon=mxgraph.aws4.group_on_premise;strokeColor=#5A6C86;fillColor=none;verticalAlign=top;align=left;spacingLeft=30;fontColor=#5A6C86;dashed=0;" vertex="1" parent="1">
          <mxGeometry x="27" y="212" width="386.67" height="440" as="geometry" />
        </mxCell>
        <mxCell id="3rgK-tgGbQ6Lh1-LBTqX-16" value="Heroku-DB" style="points=[[0,0],[0.25,0],[0.5,0],[0.75,0],[1,0],[1,0.25],[1,0.5],[1,0.75],[1,1],[0.75,1],[0.5,1],[0.25,1],[0,1],[0,0.75],[0,0.5],[0,0.25]];outlineConnect=0;gradientColor=none;html=1;whiteSpace=wrap;fontSize=12;fontStyle=0;shape=mxgraph.aws4.group;grIcon=mxgraph.aws4.group_on_premise;strokeColor=#5A6C86;fillColor=none;verticalAlign=top;align=left;spacingLeft=30;fontColor=#5A6C86;dashed=0;" vertex="1" parent="1">
          <mxGeometry x="302.66" y="690" width="296.67" height="140" as="geometry" />
        </mxCell>
        <mxCell id="3rgK-tgGbQ6Lh1-LBTqX-24" value="" style="endArrow=classic;startArrow=classic;html=1;" edge="1" parent="1" source="3rgK-tgGbQ6Lh1-LBTqX-16" target="3rgK-tgGbQ6Lh1-LBTqX-14">
          <mxGeometry width="50" height="50" relative="1" as="geometry">
            <mxPoint x="660" y="760" as="sourcePoint" />
            <mxPoint x="710" y="710" as="targetPoint" />
          </mxGeometry>
        </mxCell>
        <mxCell id="3rgK-tgGbQ6Lh1-LBTqX-25" value="" style="endArrow=classic;startArrow=classic;html=1;" edge="1" parent="1" source="3rgK-tgGbQ6Lh1-LBTqX-16" target="3rgK-tgGbQ6Lh1-LBTqX-15">
          <mxGeometry width="50" height="50" relative="1" as="geometry">
            <mxPoint x="140" y="790" as="sourcePoint" />
            <mxPoint x="190" y="740" as="targetPoint" />
          </mxGeometry>
        </mxCell>
        <mxCell id="3rgK-tgGbQ6Lh1-LBTqX-28" value="" style="edgeStyle=elbowEdgeStyle;elbow=horizontal;endArrow=classic;html=1;entryX=0.13;entryY=0.547;entryDx=0;entryDy=0;entryPerimeter=0;strokeWidth=1;endSize=0;" edge="1" parent="1" source="3rgK-tgGbQ6Lh1-LBTqX-15" target="3rgK-tgGbQ6Lh1-LBTqX-8">
          <mxGeometry width="50" height="50" relative="1" as="geometry">
            <mxPoint x="290" y="160" as="sourcePoint" />
            <mxPoint x="340" y="110" as="targetPoint" />
          </mxGeometry>
        </mxCell>
        <mxCell id="3rgK-tgGbQ6Lh1-LBTqX-29" value="" style="edgeStyle=elbowEdgeStyle;elbow=horizontal;endArrow=classic;html=1;exitX=1;exitY=0.5;exitDx=0;exitDy=0;exitPerimeter=0;" edge="1" parent="1" source="3rgK-tgGbQ6Lh1-LBTqX-8" target="3rgK-tgGbQ6Lh1-LBTqX-14">
          <mxGeometry width="50" height="50" relative="1" as="geometry">
            <mxPoint x="560" y="160" as="sourcePoint" />
            <mxPoint x="610" y="110" as="targetPoint" />
          </mxGeometry>
        </mxCell>
      </root>
    </mxGraphModel>
  </diagram>
</mxfile>
